# xmcd
#
# Track frame offsets:
#	150
#	16686
#	31976
#	47701
#	64240
#	79547
#	93827
#	111518
#	127240
#	142622
#	155502
#	167353
#	182707
#
# Disc length: 2639 seconds
#
# Revision: 1
# Processed by: cddbd v1.5.2PL0 Copyright (c) Steve Scherf et al.
# Submitted via: audiograbber 1.83.01
#
DISCID=9d0a4d0d
DTITLE=Gabriella Cilmi - Lessons to Be Learnd
DYEAR=2008
DGENRE=Pop
TTITLE0=Save the Lies
TTITLE1=Sweet About Me
TTITLE2=Sanctuary
TTITLE3=Einstein
TTITLE4=Got No Place to Go
TTITLE5=Don't Wanna Go to Bed Now
TTITLE6=Messy
TTITLE7=Awkward Game
TTITLE8=Safer
TTITLE9=Cigarettes and Lies
TTITLE10=Terrifying
TTITLE11=Sit in the Blues
TTITLE12=Echo Beach
EXTD=
EXTT0=
EXTT1=
EXTT2=
EXTT3=
EXTT4=
EXTT5=
EXTT6=
EXTT7=
EXTT8=
EXTT9=
EXTT10=
EXTT11=
EXTT12=
PLAYORDER=
